<svg xmlns="http://www.w3.org/2000/svg" viewBox="0 0 281 281"><defs><style>.cls-1{fill:#fff;}.cls-2,.cls-3{fill:none;stroke:#fff;stroke-miterlimit:10;}.cls-3{stroke-width:7px;}</style></defs><title>Asset 5</title><g id="Layer_2" data-name="Layer 2"><g id="Layer_1-2" data-name="Layer 1"><path class="cls-1" d="M221,79.52a6,6,0,0,0-6-6H66a6,6,0,0,0-6,6v98.25a9.65,9.65,0,0,0,.23,2.1,5.55,5.55,0,0,0-.23,1.61,6,6,0,0,0,6,6H215a6,6,0,0,0,6-6,5.55,5.55,0,0,0-.23-1.61,9.65,9.65,0,0,0,.23-2.1ZM140.5.5a140,140,0,1,1-140,140A140,140,0,0,1,140.5.5Z"/><circle class="cls-2" cx="140.5" cy="140.5" r="140"/><path class="cls-3" d="M162.88,130.5l-18.57,15.43a6,6,0,0,1-7.62,0L118.12,130.5,62.21,84.06A5.82,5.82,0,0,1,60,79.52a6,6,0,0,1,6-6H215a6,6,0,0,1,6,6,5.82,5.82,0,0,1-2.17,4.54Z"/><path class="cls-3" d="M211.23,187.5H215a6,6,0,0,0,6-6,5.55,5.55,0,0,0-.23-1.61,5.77,5.77,0,0,0-1.94-2.93L162.88,130.5"/><path class="cls-3" d="M118.12,130.5,62.21,176.94a5.77,5.77,0,0,0-1.94,2.93,5.55,5.55,0,0,0-.23,1.61,6,6,0,0,0,6,6h3.75"/><path class="cls-3" d="M60,78.5v99.27a9.73,9.73,0,0,0,9.73,9.73H211.23a9.73,9.73,0,0,0,9.73-9.73V78.5"/></g></g></svg>