<svg xmlns="http://www.w3.org/2000/svg" viewBox="0 0 557.3 462.18"><defs><style>.cls-1{fill:#fff;}</style></defs><title>Asset 3</title><g id="Layer_2" data-name="Layer 2"><g id="Layer_1-2" data-name="Layer 1"><path class="cls-1" d="M147.24,232.94l43.17-31.46c2.57-1.88.08-6.22-2.52-4.32l-43.17,31.46c-2.57,1.88-.08,6.22,2.52,4.32Z"/><path class="cls-1" d="M152,211.66a213.36,213.36,0,0,1,56.37-31.52c3-1.12,1.69-6-1.33-4.82a221.13,221.13,0,0,0-58.57,32.81c-2.53,2,1,5.49,3.54,3.54Z"/><path class="cls-1" d="M211.75,209.46c3.22,0,3.22-5,0-5s-3.22,5,0,5Z"/><path class="cls-1" d="M210.46,209.2a79,79,0,0,0,17.39,7.12,75.87,75.87,0,0,0,9.34,1.88c2.26.31,4.91-.08,6.67,1.56l1.77-4.27q.6,0-.54-.41c-2.37-2.17-5.92,1.36-3.54,3.54a6.9,6.9,0,0,0,4.07,1.87c2.16.14,3.31-2.84,1.77-4.27-3.8-3.52-9.2-2.73-14-3.72A73.07,73.07,0,0,1,213,204.89c-2.82-1.55-5.35,2.77-2.52,4.32Z"/><path class="cls-1" d="M209.6,205.7a77.62,77.62,0,0,0-9,29.67c-.7,7.46-.17,19.35,9.72,20.23,9,.8,18.49-7.79,24.63-13.45,7.06-6.5,12.61-14.33,13.19-24.16.19-3.21-4.81-3.2-5,0-.45,7.65-4.74,13.79-10,19s-11.9,11.05-19.08,13.16c-11.4,3.35-8.72-14.56-7.57-20.68a72.63,72.63,0,0,1,7.48-21.28c1.54-2.83-2.78-5.36-4.32-2.52Z"/><path class="cls-1" d="M219.86,193.8c4.85-2.5,9.35-6.38,11.72-11.39s-.24-8.71-3.95-12l-1.1,4.18c12.69-4.9,14,17.26,15.26,24.67l2.41-3.16c-8.62-.79-16.85-4-24.94-6.85-3-1.09-4.34,3.74-1.33,4.82,8.56,3.06,17.15,6.2,26.27,7,1.77.16,2.66-1.72,2.41-3.16-1.28-7.51-1.62-16.56-6.25-23-3.44-4.76-9.53-7.38-15.17-5.2-1.62.63-2.64,2.81-1.1,4.18,6.83,6.08-1,12.61-6.76,15.55-2.86,1.47-.34,5.79,2.52,4.32Z"/><path class="cls-1" d="M210,178.12c.58-7.63,2.71-13.83,10.6-16.26a31.9,31.9,0,0,1,19.62.46c13.14,4.53,21.18,17.43,20.84,31.09-.08,3.22,4.92,3.22,5,0,.42-17-10.77-32.73-27.54-36.79-7.71-1.87-16.69-1.49-23.84,2.21s-9.1,11.74-9.67,19.29c-.25,3.21,4.76,3.19,5,0Z"/><path class="cls-1" d="M186.34,198.73c-5,14.52-8.94,30.23-4.82,45.49,3.27,12.13,11.89,22.78,24.4,26,13.62,3.52,24.47-4.14,33.11-13.92,10.63-12,20.07-24.7,25.79-39.81,1.14-3-3.69-4.31-4.82-1.33-4.93,13-12.87,24-21.82,34.49-8,9.4-17.44,19.13-30.93,15.75-12-3-19.37-14-21.61-25.55-2.62-13.5,1.15-27.09,5.53-39.79,1-3-3.78-4.36-4.82-1.33Z"/><path class="cls-1" d="M265,196.13c10.78-3.2,20.49-12.94,28.69-20.29a232.77,232.77,0,0,0,26.4-28.05c2-2.49-1.53-6-3.54-3.54a233.68,233.68,0,0,1-23.81,25.69q-6.11,5.66-12.63,10.85c-5,4-10.26,8.68-16.44,10.51-3.08.91-1.77,5.74,1.33,4.82Z"/><path class="cls-1" d="M263.67,218c11.36-7.79,22.72-15.6,33.79-23.8,9.26-6.86,20.54-13.76,26.36-24,1.59-2.8-2.73-5.32-4.32-2.52-5.91,10.39-18.18,17.56-27.61,24.45-10.11,7.39-20.43,14.48-30.76,21.57-2.64,1.81-.14,6.14,2.52,4.32Z"/><path class="cls-1" d="M321.16,144.87l-.1-.33-1.15,2.82c-.31.16,4.66,3.87,4.8,4a52.74,52.74,0,0,1,4.64,4.6c2.85,3.14,5.42,6.53,8,9.87l18.24,23.29c2,2.53,5.5-1,3.54-3.54-7.51-9.59-14.9-19.28-22.55-28.76a63.28,63.28,0,0,0-10.12-10.42c-2.5-1.95-5.8-5-9.1-3.34a2.53,2.53,0,0,0-1.15,2.82l.1.33c.9,3.08,5.73,1.77,4.82-1.33Z"/><path class="cls-1" d="M320.4,171.08c4.34,2.55,6.8,7.41,9.72,11.36q5.27,7.12,10.58,14.22c1.9,2.55,6.24.06,4.32-2.52-4.2-5.64-8.52-11.22-12.59-17-2.8-4-5.22-7.9-9.5-10.41-2.78-1.63-5.3,2.69-2.52,4.32Z"/><path class="cls-1" d="M347.31,211a58.17,58.17,0,0,0-19.11,23.81c-2.58,6-8.51,21.15,2.06,23,4.27.76,7.86-1.85,10.43-5a99.63,99.63,0,0,0,9.44-13.68c4.49-7.84,9.4-20.08.9-27.06-2.47-2-6,1.49-3.54,3.54,6.5,5.34,1.66,15.18-1.68,21-1.69,3-3.63,5.75-5.61,8.52-1.86,2.6-9.67,13.82-10.84,3.05-.28-2.55,1.53-6.55,2.4-8.93a52,52,0,0,1,4.42-9.12,52.52,52.52,0,0,1,13.65-14.87c2.56-1.89.07-6.24-2.52-4.32Z"/><path class="cls-1" d="M341.09,193.63c-5.21,4.82-10.55,9-15.35,14.28a82.42,82.42,0,0,0-12,16.46c-6,11.43-8,26.32.15,37.31,7.48,10.16,20.7,12,30.89,4.92,10-6.9,17.22-17.42,20.95-28.9a58.53,58.53,0,0,0,2.81-21,56,56,0,0,0-1.37-9.79c-.38-1.62-.85-3.21-1.38-4.79-1.13-3.35.24-5.19,3.57-5.53,3.17-.33,3.2-5.33,0-5-4.71.48-10.34,2.12-9.55,7.91.47,3.42,2.15,6.71,2.85,10.12a49.88,49.88,0,0,1,1,10.63c-.19,15.21-7,30.42-18.83,40.12-7.57,6.21-16.85,8-24.57.92-7-6.41-7.92-16.94-5.61-25.63,2.19-8.23,7.11-15.41,12.6-21.8s11.47-11.14,17.47-16.69c2.37-2.19-1.17-5.72-3.54-3.54Z"/><path class="cls-1" d="M359.77,189.65a96.19,96.19,0,0,0,14.31-14.83l-3.93.51a13.21,13.21,0,0,0,14.8,1.71l-3.67-2.82c-2.1,13.07.35,30.58,12.72,38.16,8.08,5,22.27,1,23.19-9.52.28-3.2-4.72-3.19-5,0-.33,3.77-4.94,6-8.2,6.59-4.55.87-8.41-1.37-11.35-4.73-6.74-7.71-8.11-19.42-6.54-29.17a2.54,2.54,0,0,0-3.67-2.82,7.87,7.87,0,0,1-8.74-.93,2.56,2.56,0,0,0-3.93.51c-3.88,5.23-8.66,9.55-13.53,13.82-2.42,2.13,1.12,5.65,3.54,3.54Z"/><path class="cls-1" d="M368.65,196.49c1.68.29,2.61,7.05,3,8.53a59.39,59.39,0,0,0,3.14,8.44,36.46,36.46,0,0,0,10.27,13.4c7.26,5.71,18.45,9.15,23.65-.63,1.51-2.84-2.8-5.37-4.32-2.52-6.23,11.72-21.25-4.75-24.56-11.26-2.34-4.61-3.22-9.5-4.87-14.33-.89-2.61-2-5.92-5-6.44s-4.5,4.27-1.33,4.82Z"/><path class="cls-1" d="M440.59,175.82a101.48,101.48,0,0,0,24-36.64,98.84,98.84,0,0,0,5.48-21.49c.65-4.68,2.81-13-.57-17-8.36-10-19.47,20.43-21.21,24.45-6.6,15.31-11.81,31.11-13.05,47.83-.24,3.21,4.76,3.19,5,0,1-13.27,4.66-26,9.52-38.38,2.46-6.25,5.22-12.37,8.07-18.45a69.57,69.57,0,0,1,4-7.92c.29-.46,2.62-4.2,3.55-4s.56,4.32.53,4.92a95.72,95.72,0,0,1-28.83,63.17c-2.31,2.25,1.23,5.79,3.54,3.54Z"/><path class="cls-1" d="M429.21,225.4A60.1,60.1,0,0,1,456,248.51c7.39,11.92,6.5,25.64,4.12,38.92-2.25,12.59-5.45,25.28-11.55,36.61-5.45,10.12-14.53,22.43-26.26,25.44l3.16,2.41c-4.19-42.75-.91-85.87,7.39-128,.62-3.14-4.2-4.49-4.82-1.33-8.39,42.54-11.81,86.12-7.57,129.31a2.54,2.54,0,0,0,3.16,2.41c12.06-3.1,21.63-14.72,27.7-25,7.6-12.85,11.42-27.64,13.89-42.25,2.33-13.76,2.91-27.95-4.48-40.35a64.38,64.38,0,0,0-29-25.62c-2.92-1.28-5.47,3-2.52,4.32Z"/><path class="cls-1" d="M369.6,153.23v.13l2.5-2.5h-.16l2.5,2.5a10.36,10.36,0,0,1,1.39-4l.15-.75,2.29,0c2.37,0,4.95-.71,6,2,.57,1.49.5,1.37-1,1.69a30.43,30.43,0,0,1-3.28.32c-1.23.12-5,1.06-5.87-.38v2.52l.17-.26c1.73-2.73-2.6-5.24-4.32-2.52l-.17.26a2.5,2.5,0,0,0,0,2.52c2.51,4.35,8.35,3,12.38,2.65,2.17-.21,4.65-.13,6.24-1.84s1.41-4.14.68-6.21-1.69-4-3.58-5c-2.27-1.22-5.38-.7-7.82-.68-2.21,0-4.35,0-5.68,2.06-1.2,1.87-2.7,5.46-2.57,7.67a2.53,2.53,0,0,0,2.5,2.5h.16a2.58,2.58,0,0,0,2.5-2.5v-.13c.27-3.21-4.73-3.19-5,0Z"/><path class="cls-1" d="M438,204.62c20.35,2,40.4-7.06,59.42-13.19,19.87-6.4,39.45-13.52,58.66-21.7l-3.42-3.42c-4,7.4-12.85,12.56-19.88,16.83-8,4.83-17.12,7.32-25.67,10.93-16.1,6.78-32.12,14.91-50,15.07-3.22,0-3.22,5,0,5,19.56-.18,36.83-9.35,54.51-16.59,8.84-3.62,17.84-6.27,25.91-11.52,7-4.56,15.35-9.65,19.42-17.19,1.28-2.37-1.21-4.36-3.42-3.42-18.81,8-38,14.93-57.47,21.2-18.56,6-38.26,15-58.09,13-3.2-.32-3.18,4.69,0,5Z"/><path class="cls-1" d="M404.61,223.87c-5.39,27.26-9.35,55-8.76,82.85a231.43,231.43,0,0,0,4,39,188.65,188.65,0,0,0,4.73,19.15c1.22,4,2.11,9.41,6.43,11.23s10.28.35,14.53-.61a35.74,35.74,0,0,0,14.62-6.93,107.76,107.76,0,0,0,23.59-25.27c13.5-20.44,25.88-44.6,29-69.19a61.13,61.13,0,0,0-6.53-35.86C480,226.31,469.6,217.81,459,210c-2.59-1.91-5.09,2.43-2.52,4.32,8.84,6.52,17.65,13.51,23.51,23a56.1,56.1,0,0,1,8.35,30.39c-.38,22-11.7,44.62-22.61,63.18-10.35,17.62-25.09,38.5-47.11,40.77-4.05.42-6.29-.57-8-4.45a59.43,59.43,0,0,1-2.44-8.1q-2.38-8.61-3.94-17.41a224.85,224.85,0,0,1-3.33-34.91c-.57-27.42,3.27-54.68,8.58-81.52.62-3.14-4.2-4.49-4.82-1.33Z"/><path class="cls-1" d="M416.71,205.12c4.28-18.1,8-36.49,13.51-54.25,2.6-8.34,6.09-16.32,9-24.55,2.65-7.55,4.88-15.26,8-22.63,2.82-6.57,7.68-17.7,15.1-20.1,9.2-3,16,9.34,17.33,16.49,1.73,9.31-.23,19.22-2,28.38-1.7,8.74-3.84,17.69-7.43,25.86-3.78,8.62-10.87,15.21-15.55,23.35s-9.13,17-18,21.57c-2.86,1.47-.34,5.79,2.52,4.32,7.85-4,12.8-11.17,17.08-18.64,2.71-4.74,5.27-9.56,8.67-13.86,2.89-3.66,5.92-7,8.11-11.2,4.57-8.68,7.05-18.67,9-28.22s4.05-20.07,2.85-29.95C484,94.19,480.8,86.64,474.58,82s-13.7-4.92-19.55.48c-13.41,12.36-16.79,32.83-23.1,49.11-9.08,23.44-14.27,47.81-20,72.21-.74,3.13,4.08,4.46,4.82,1.33Z"/><path class="cls-1" d="M43.76,417.49c-13.81-8.31-11.25-28.53-7.59-41.72,4-14.52,12.8-26.56,21.75-38.43a515.49,515.49,0,0,1,59.29-65.76l-4.18-1.1c.85,3.3-1.38,7.56-2.4,10.62q-1.6,4.82-3.27,9.62-3.34,9.6-7,19.09-7.47,19.55-16.16,38.6-8.43,18.5-18,36.46-4.55,8.57-9.34,17C55.74,404,46.73,422.45,42.8,416.72c-1.81-2.64-6.14-.14-4.32,2.52,9,13.1,20-9.86,23.23-15.64q12.29-21.71,23-44.28,10.4-22,19.22-44.73,4.68-12.06,8.9-24.29c2.13-6.17,6.77-14.53,5.06-21.15a2.53,2.53,0,0,0-4.18-1.1,520,520,0,0,0-65.42,74c-9.47,13-16.83,26.79-19.08,43-1.87,13.4-.71,29.12,12.06,36.8,2.76,1.66,5.28-2.66,2.52-4.32Z"/><path class="cls-1" d="M122,228.8C95,254,67,278.44,44.88,308.24a280.4,280.4,0,0,0-25.6,42C11.75,365.4,4.91,380.84,1.33,397.42a62.81,62.81,0,0,0,9.08,47.23c8.44,13,24.65,23.72,39.19,13.43,6.6-4.67,11.33-11.32,15.65-18,5.36-8.33,10.61-16.74,15.82-25.17,10.42-16.87,20.47-34,29.15-51.85,20.16-41.43,29.25-86,37.45-131,.57-3.15-4.25-4.5-4.82-1.33-6.69,36.78-13.49,73.86-27.52,108.69-13.81,34.26-33.75,65.74-53.54,96.79-4.47,7-9.39,14.76-16.82,19-9.67,5.47-18.63-.32-25.63-7.26C7.47,436.11,2.66,416,5.89,400c3.18-15.84,9.56-30.53,16.62-45a285.08,285.08,0,0,1,22.92-39c22.36-31.74,51.85-57.3,80.08-83.62,2.36-2.2-1.18-5.73-3.54-3.54Z"/><path class="cls-1" d="M111,221.73c-17.68-5.38-34.47-14.91-46.32-29.33-6.64-8.09-10.72-17.35-13.92-27.24-3.66-11.29-5.8-21.83-5.17-33.75,2.11-40.42,24.94-80.9,64.66-94.6,10-3.45,23.52-6.52,32.21,1.51,9.17,8.48,9.11,22.53,7.79,34-.37,3.19,4.64,3.16,5,0,1.25-10.81,1.09-22.63-4.92-32.13-5.59-8.83-14.82-12.49-25-11.77-20.32,1.42-40,13.44-53.86,27.81C39,89.9,30.1,146.45,54.78,187c12.12,19.92,33,32.87,54.92,39.55,3.08.94,4.4-3.88,1.33-4.82Z"/><path class="cls-1" d="M111.14,222.48c-37.66,5.48-68.2-24.35-80.27-57.34-6.25-17.07-10.49-36.42-6-54.37a137,137,0,0,1,19.88-43.2A152.55,152.55,0,0,1,119,10c8.25-2.93,17.13-5.65,26-4.94,9.71.78,17.1,6.67,21.68,15s6.12,17.93,7.81,27.12c1.86,10.13,2.7,20,1.37,30.27-3,22.69-8.22,45.27-12.43,67.76-4,21.65-8.13,43.19-15.62,64-1.09,3,3.74,4.34,4.82,1.33,7.49-20.78,11.57-42.32,15.62-64,4.17-22.32,9.21-44.66,12.36-67.15a96.82,96.82,0,0,0-.65-30c-1.66-9.86-3.37-20.1-7.61-29.23-3.4-7.33-8.91-14.07-16.39-17.48C147.72-1,138.5-.44,129.9,1.52,96.85,9.05,66.53,30.81,46,57.38a149.11,149.11,0,0,0-23.73,44.47c-3.17,9.66-5,19.48-4.15,29.66A136.7,136.7,0,0,0,24,160.27c6,19.43,16.57,38,32.66,50.84,15.77,12.56,35.73,19.12,55.85,16.19,3.17-.46,1.82-5.28-1.33-4.82Z"/><path class="cls-1" d="M150.27,71q-4.36,40.56-10.9,80.83-3.15,19.33-6.81,38.56c-2.49,13.07-3.81,27.38-11,38.88-1.7,2.74,2.62,5.25,4.32,2.52,7-11.18,8.47-24.48,10.91-37.19q4-20.67,7.37-41.45,6.68-40.92,11.08-82.16c.34-3.2-4.66-3.17-5,0Z"/></g></g></svg>