<svg xmlns="http://www.w3.org/2000/svg" viewBox="0 0 552.42 457.55"><defs><style>.cls-1{fill:#fff;}</style></defs><title>Asset 4</title><g id="Layer_2" data-name="Layer 2"><g id="Layer_1-2" data-name="Layer 1"><path class="cls-1" d="M370,151a.35.35,0,0,0-.15.15h0c-.09-.09-.06-.24,0-.36.57-1.79,1.21-3.57,1.9-5.32a2.5,2.5,0,0,1,.88-1.29,2.6,2.6,0,0,1,1.27-.24l5.72-.05a4.17,4.17,0,0,1,4.84,3.52c.61,1.48,1.11,3.44-.14,4.45a3.76,3.76,0,0,1-2,.61l-7.65.74a3.93,3.93,0,0,1-2.59-.33c-.66-.43-2.36-1.22-2.15-1.72C369.92,151.23,370.08,151.08,370,151Z" transform="translate(-0.25 -0.25)"/><path class="cls-1" d="M205.4,175.56c.4-5.7,1.63-11.88,6.13-15.37a16.67,16.67,0,0,1,4.78-2.46,33.79,33.79,0,0,1,45.12,33.46l.75.31c3.66-.89,6.85-3.08,9.88-5.3a228,228,0,0,0,44.1-42.4l.4-.53c-.39-.29.59-.76,1.12-.49,7.28,3.73,12.55,10.36,17.59,16.8l20,25.54.59.55c5.21-4.57,9.89-8.7,13.92-14.33a10.2,10.2,0,0,0,11.77,1.32,43.34,43.34,0,0,0,1.5,21.32c2.16,6.49,6.3,12.81,12.67,15.31s16.83-2.43,16.83-8.65q2.91-12.36,5.84-24.71c2.95-12.49,5.91-25,10.38-37.05,1.54-4.16,3.26-8.24,4.79-12.4,5.41-14.61,8.85-30.57,19.08-42.33,2.22-2.56,4.94-5,8.29-5.52a11.82,11.82,0,0,1,6.65,1.12c6.48,2.94,10.65,9.64,12.19,16.59s.8,14.18-.24,21.22a168.6,168.6,0,0,1-6.88,29.55,53,53,0,0,1-6.44,13.59c-1.89,2.69-4.16,5.08-6.15,7.69-4,5.27-6.85,11.33-10.34,17s-7.89,11-13.88,13.85v.71a59.35,59.35,0,0,0,18.47-.79,117.68,117.68,0,0,0,12.35-3.43l15.25-4.84c10.87-3.45,21.75-6.91,32.53-10.67q19.35-6.75,38.22-14.83c-2.18,4.55-6.42,7.71-10.51,10.67-5.27,3.84-10.6,7.7-16.53,10.42-3.37,1.54-6.89,2.69-10.37,4-19.73,7.26-38.71,18.91-59.7,19v.49c7.7,5.65,15.33,11.63,21.17,19.19a58.12,58.12,0,0,1,10.91,46,136.88,136.88,0,0,1-6.35,22.49A220.6,220.6,0,0,1,455,346.42c-4.75,6.63-12.35,13-18.66,18.16s-14.15,7-22.29,7.49c-2,.13-4.21,0-5.64-1.41a8.11,8.11,0,0,1-1.75-3.29c-7.87-23.16-10.77-47.82-10.42-72.28.36-24.29,3.87-48.44,8.6-72.27l-.34-.07c-1.85,3.92-4.63,5.7-8.91,5-6.6-1.07-12.42-5.27-16.45-10.61s-6.41-11.74-8-18.24a15.17,15.17,0,0,0-1.59-4.56c-.85-1.37-.72-2.56-2.33-2.48-2.84.21-7.28,1.22-7.22,4.06a12.48,12.48,0,0,0,1,4c7.74,21.5,0,47.6-18.26,61.37a25.69,25.69,0,0,1-8.82,4.64c-7.33,1.9-15.43-1.64-20-7.68s-5.88-14.13-4.68-21.61c2.32-14.55,13-26.17,23.33-36.64,2.18-2.2,5.89-4.48,8.2-6.78L329,177.38c-2.82-3.79-5.22-8.55-9.44-10.67-2.76,5.28-7.5,9.19-12.16,12.91-14.84,11.83-31.44,23.26-47.1,34a91,91,0,0,1-7.86,16.23,161.16,161.16,0,0,1-15.19,20c-5.52,6.49-11.6,13.17-19.76,15.61-9.92,3-21.13-1.35-27.92-9.17s-9.58-18.54-9.4-28.89,3-20.27,6.37-30l-15.15,11L154.22,221q-5.19,3.76-10.36,7.55l-.73.58c-6.37,35-12.81,70.31-25.51,103.58-13.71,35.91-34.4,68.67-55,101.16-4.76,7.52-9.72,15.26-17.08,20.26s-15.28,4.87-22.45-.4c-3.91-2.87-8.07-6.1-10.93-10C3.13,431.25-1.88,414,1.13,398.25a149.63,149.63,0,0,1,6.5-23c18.16-44.26,37-71.06,63.87-99.17,7.14-7.48,14.62-14.62,22.18-21.67l28-26a47.86,47.86,0,0,0,6.64-16.43q14.67-71,22.38-143.11l.14,0c1.06-9.49.69-19.7-3.52-27.58a24.94,24.94,0,0,0-6.94-8.44C133,27.41,122.91,28,114.1,30.2c-21.85,5.56-41,20-53.65,38.7s-19,41.23-19.6,63.76a73.8,73.8,0,0,0,.85,14.63,100,100,0,0,0,3.47,12.91A133.89,133.89,0,0,0,51.3,177c10.56,22.57,33.05,37.85,56.94,45l.12.94c-22.15,3-44.94-7.05-60.36-23.29C32.27,183,23.54,160.8,19.71,138.29a80.94,80.94,0,0,1-1.37-18,77.9,77.9,0,0,1,4-19.24c14.81-45.92,53.38-83.2,99.47-97.49,10.28-3.18,21.83-5.2,31.5-.46C160,6.34,164.91,12.53,168,19.3s4.63,14.14,6,21.46c1.5,7.75,2.91,15.57,2.92,23.47,0,8.26-1.51,16.43-3,24.55q-6.68,35.66-13.34,71.31a302.55,302.55,0,0,1-12.55,47.59A212.12,212.12,0,0,1,205.4,175.56Zm4.19,29.26a75.14,75.14,0,0,0-8.84,31.51,23.74,23.74,0,0,0,.69,8.24,9,9,0,0,0,5.32,6c2.81,1,5.9,0,8.58-1.29a59.68,59.68,0,0,0,12.81-8.56c7.82-6.58,15.1-14.7,15.35-24.92v0a10,10,0,0,0-2.6-1.69,73.06,73.06,0,0,1-31.3-9.26ZM466.37,103.73c0-1.93-.55-4.5-2.49-4.58a3.29,3.29,0,0,0-1.9.68c-3.32,2.2-5.2,6-6.91,9.56-9.25,19.51-18.07,39.81-19.46,61.36l1.09,1.09A97.68,97.68,0,0,0,466.37,103.73Zm-6,182.15c2.05-11.35,3.29-23.41-.94-34.14a44.26,44.26,0,0,0-4.8-8.81A62.39,62.39,0,0,0,428.34,221q-3.68,18.48-5.92,37.22c-1.07,8.89-1.89,17.81-2.7,26.72-.43,4.64-.37,9.29-.51,13.94-.13,3.89-.2,7.25,0,10.74a76.81,76.81,0,0,1-.12,8.31c-.52,10.48.77,21.27,1.78,31.71a23.06,23.06,0,0,0,8.61-4.14c9.37-6.65,16.39-16.24,21.25-26.66S458.37,297.19,460.41,285.88ZM350,226.51a18.87,18.87,0,0,0,1-8,9.69,9.69,0,0,0-3.86-6.84l-.69-.73a54.43,54.43,0,0,0-21.62,34.4c-.36,2.06-.55,4.37.68,6.06,1.55,2.13,4.84,2.31,7.19,1.11s4-3.4,5.55-5.54C342.91,240.6,347.64,234.06,350,226.51ZM242.08,196.36c-.52-3-1-6.07-1.55-9.11-.79-4.64-1.66-9.47-4.45-13.26s-8.13-6.14-12.34-4c2.2,1.88,4.62,4.29,4.2,7.15a7.31,7.31,0,0,1-.93,2.41,23.8,23.8,0,0,1-10.53,9.91C224.19,192.18,233.91,195.8,242.08,196.36Zm-129.15,77c.61-1.89,1.2-4,.4-5.8a513.44,513.44,0,0,0-64.52,72.79,136.13,136.13,0,0,0-11.27,17.47,78.7,78.7,0,0,0-8.61,31,42.26,42.26,0,0,0,1.6,16.11,22.52,22.52,0,0,0,8.65,11.79c1.53,1.6,4.41,1.77,6.47.68,2.4-1.29,3.92-3.73,5.31-6.08A676.71,676.71,0,0,0,112.93,273.4Z" transform="translate(-0.25 -0.25)"/></g></g></svg>